<svg width="27" height="30" viewBox="0 0 27 30" fill="none" xmlns="http://www.w3.org/2000/svg">
<path d="M1.83997 12.9012C1.84107 12.4811 2.02236 12.0816 2.33786 11.8041L12.412 2.9432C12.962 2.45945 13.7846 2.45576 14.3389 2.93457L24.6072 11.8042C24.928 12.0814 25.1132 12.4804 25.1148 12.9044C25.1257 15.7646 25.1645 26.948 25.1122 28.231C25.0521 29.7038 22.2507 29.283 22.2507 28.231V24.4438C22.2507 22.8027 18.9264 22.3818 18.9264 24.4438V28.231C18.9264 29.5355 15.9386 30.1246 15.8545 28.231C15.7703 26.3374 15.8545 26.8424 15.7703 24.2755C15.6862 21.7086 11.1415 21.7086 11.1415 24.4438C11.1415 27.179 11.1836 26.7582 11.0573 28.3152C10.9311 29.8722 8.11168 29.8722 8.11168 28.3152V24.4438C8.11168 22.5081 4.74525 22.8027 4.74525 24.2755C4.74525 25.7483 4.82941 26.8424 4.74525 28.3152C4.66109 29.788 1.79962 29.9984 1.79962 28.3152L1.83997 12.9012Z" fill="#F56630"/>
<path d="M1 11.2726L12.4034 1.34307C12.9577 0.86045 13.7836 0.862705 14.3352 1.34835L26.0378 11.6513" stroke="#F56630" stroke-width="1.17303"/>
<path d="M8.06955 20.6144C8.06955 21.5905 7.27826 22.3818 6.30217 22.3818C5.32607 22.3818 4.53479 21.5905 4.53479 20.6144C4.53479 19.6383 5.32607 18.847 6.30217 18.847C7.27826 18.847 8.06955 19.6383 8.06955 20.6144Z" fill="#FFECE5"/>
<path d="M15.8123 19.0995C15.8123 20.401 14.7573 21.456 13.4558 21.456C12.1544 21.456 11.0993 20.401 11.0993 19.0995C11.0993 17.7981 12.1544 16.743 13.4558 16.743C14.7573 16.743 15.8123 17.7981 15.8123 19.0995Z" fill="#FFECE5"/>
<path d="M22.0402 20.4461C22.0402 21.3292 21.3243 22.0451 20.4412 22.0451C19.5581 22.0451 18.8421 21.3292 18.8421 20.4461C18.8421 19.563 19.5581 18.847 20.4412 18.847C21.3243 18.847 22.0402 19.563 22.0402 20.4461Z" fill="#FFECE5"/>
</svg>
